<svg xmlns="http://www.w3.org/2000/svg" viewBox="0 0 156 156"><defs><style>.cls-1{fill:#60f;stroke-width:3px;}.cls-1,.cls-2,.cls-3,.cls-4,.cls-5,.cls-6,.cls-7,.cls-8{stroke:#000;stroke-miterlimit:10;}.cls-2{fill:#fcc;}.cls-3{fill:#f36;}.cls-4{fill:#fff;}.cls-5{fill:#f8bbd0;}.cls-7{fill:none;}.cls-8{fill:#f48fb1;}</style></defs><title>ic_avatar_einhorn</title><g id="Einhorn"><g id="Ebene_28" data-name="Ebene 28"><circle class="cls-1" cx="78" cy="77.83" r="76.5"/></g><g id="Ebene_30" data-name="Ebene 30"><g id="Ebene_31" data-name="Ebene 31"><path class="cls-2" d="M81.33,95.83a35.18,35.18,0,0,1-1.17,12.33c-2.43,8.6-7.1,11.84-9.67,17.33-2.47,5.28-3.54,13.79,3,27.83a72.13,72.13,0,0,0,31.57-3.76,73.58,73.58,0,0,0,35.26-27.24l-10-7.33a15.11,15.11,0,0,1-9.5-5.17c-2-2.47-2.42-5-3-8-1.08-5.53.36-6.39,0-14.17A65.28,65.28,0,0,0,116,75.5a40,40,0,0,0-2.17-6.5,38,38,0,0,0-2.33-4.5A33.16,33.16,0,0,0,95.83,49.33a31.37,31.37,0,0,0-11.42-2.67Z"/></g><g id="Ebene_34" data-name="Ebene 34"><path class="cls-3" d="M87.81,38.51s4.19.82,4.69,2.82c0,0,7.3,0,8.9,3.92,0,0,6.1,2.58,6.6,6.58,0,0,5.17,3,6.5,7.83,0,0,4.5,5.5,4.33,10.83,0,0,4.33,7.67,2.5,13,0,0,2.83,6.83,1.33,9.83a7.71,7.71,0,0,0-.67,5.5s3.83,2.67,5,5.67,4.67,7.83,4.17,10-4.33,13-4,15.33l-.67,3.67s-2.67-5.5-2.5-8.67-2.5,4.5-1.67,5.83-4.5-7.17-4.17-15.67-5.83-59.33-29.33-67.83l-4.42-.5s-6.58.33-5.25-2.33S87.81,38.51,87.81,38.51Z"/></g><path class="cls-2" d="M48,105a2.45,2.45,0,0,0-.5,1.91c.39,1.71,3,2.29,3.67,2.43a10.16,10.16,0,0,0,6.58-1.21,14,14,0,0,0,2.58-1.62,3.2,3.2,0,0,0,1.08-1.75,3.35,3.35,0,0,0-.67-2.71l.5-1.17a13.49,13.49,0,0,1,7-4.83c3.27-.82,4.83.42,8.79.33A20.19,20.19,0,0,0,88.5,92.5C94.27,88,95,80.83,95.23,79.05c.54-4.76-.68-10.61-5.73-17.55a17.87,17.87,0,0,1-5.08-14.83,13.91,13.91,0,0,0,2.75-5.17C89.3,33.85,83.7,27.14,83,26.33a17.6,17.6,0,0,0-4.44,4.08,19.17,19.17,0,0,0-3.65,12.75,3.79,3.79,0,0,1-1,3.33,3.6,3.6,0,0,1-3.58.83,24.62,24.62,0,0,1-6.25-3.92,26.65,26.65,0,0,1-8.46-15s-5.52,15.73-1,19.72c-.31,2.86-.73,5.88-1.31,9a125.35,125.35,0,0,1-3.46,14.21L47,78.08c-3.92,7.13-6,8.52-7.19,8.22-.87-.23-1.26-1.38-2.94-2a5.89,5.89,0,0,0-3.37-.08,5.29,5.29,0,0,0-3.19,3.41,4.59,4.59,0,0,0,.19,2.67c1.67,4.33,4.5,2.33,4.5,2.33s2,.77.83,3.47-1.66,7.7,2.17,9.2,6.67,1.5,10-.33,9.17-4.17,9.17-7"/><ellipse class="cls-4" cx="52.24" cy="64.1" rx="7.24" ry="6.77"/><ellipse class="cls-4" cx="66" cy="64.06" rx="9.33" ry="8.73"/><g id="Ebene_32" data-name="Ebene 32"><path class="cls-5" d="M65.13,61.66c0,3.72-18.67,3.72-18.67,0s4.18-6.74,9.33-6.74S65.13,57.94,65.13,61.66Z"/><path class="cls-6" d="M70.69,65.59a1.16,1.16,0,0,1-2.31,0C68.38,65,70.69,65,70.69,65.59Z"/><path class="cls-5" d="M75.5,62.41c0,3.72-18.67,3.72-18.67,0s4.18-6.74,9.33-6.74S75.5,58.69,75.5,62.41Z"/><g id="Ebene_33" data-name="Ebene 33"><path class="cls-3" d="M68.92,44.42a28.29,28.29,0,0,0-9,.58c-4,.92-8.26,2.85-8.08,3.58.08.33,1.12.56,5.33.08a27.56,27.56,0,0,0-9.75,4.17,28.07,28.07,0,0,0-9.83,12A32,32,0,0,1,47.83,59a8.9,8.9,0,0,0-2.42,3.42,9.37,9.37,0,0,0,.08,6.75A31.67,31.67,0,0,1,58.33,57.33a4.57,4.57,0,0,0-1.75,2.75A4.91,4.91,0,0,0,59.08,65a18.3,18.3,0,0,1,2.08-5.75,17.89,17.89,0,0,1,4.92-5.58c2.12-1.52,2.64-1.1,4.75-2.67.49-.36,4.71-3.5,4-5.33C74.36,44.46,71.83,44.05,68.92,44.42Z"/></g><path class="cls-4" d="M53.33,53.58l-1-2.45L43.85,29.21l-1.18-3s-.23-1.62.41-1.92c.46-.21,1.15.36,1.59.76a24.89,24.89,0,0,1,2.55,2.81,82.2,82.2,0,0,1,4.95,7.11c1.76,2.82,3.22,4.78,5,7.17a58.42,58.42,0,0,0,3.75,4.58c1,1.05,1.8,1.9,2.42,2.5a18,18,0,0,0-10,4.42Z"/><path class="cls-6" d="M55.52,64.82a1.16,1.16,0,0,1-2.31,0C53.21,64.25,55.52,64.25,55.52,64.82Z"/><path class="cls-4" d="M52.38,51.13s7.71-1.52,8.58-4"/><path class="cls-4" d="M51.38,48.13s7-1.52,7.75-4"/><path class="cls-4" d="M50.38,45.13s5.73-1.52,6.38-4"/><path class="cls-4" d="M49.38,42.13s4.56-1.52,5.08-4"/><path class="cls-4" d="M47.38,38.13s4.11-1.52,4.58-4"/><path class="cls-4" d="M45.67,34.17s3.52-1.38,3.92-3.58"/><path class="cls-4" d="M44.17,29.5A5.2,5.2,0,0,0,46,26.18"/><path class="cls-7" d="M98.33,82s2.33,23-10.67,44"/></g><g id="Ebene_35" data-name="Ebene 35"><path class="cls-8" d="M79.33,48.5s-6-9,3.17-19.33A12.76,12.76,0,0,1,82.75,45l-.65,5.75Z"/></g><g id="Ebene_36" data-name="Ebene 36"><path class="cls-7" d="M51,90.88s-3.25-6,2.5-4.75,5.38,5.75,5.38,5.75-.12,4.13-3.5,3"/><path class="cls-8" d="M52.67,92.17c-.09-.36-.2-.88-.33-1.5C52,89,52,88.8,52.14,88.6c.39-.61,1.59-.59,2.36-.35a3.73,3.73,0,0,1,2.12,2.12,3.29,3.29,0,0,1,.38,2,1.76,1.76,0,0,1-.5,1.08,2,2,0,0,1-2.25,0Z"/></g><path class="cls-7" d="M104.67,132s-15.67,8.33-11,21.33"/></g></g></svg>