<svg xmlns="http://www.w3.org/2000/svg" viewBox="0 0 156 156"><defs><style>.cls-1{fill:#ffab00;stroke-width:3px;}.cls-1,.cls-2,.cls-3,.cls-4,.cls-5,.cls-6,.cls-7,.cls-8{stroke:#000;stroke-miterlimit:10;}.cls-2{fill:#006064;}.cls-3{fill:#00838f;}.cls-4{fill:#efebe9;}.cls-5{fill:#3e2723;}.cls-6{fill:none;}.cls-7{fill:#fff;}</style></defs><title>ic_avatar_tesla</title><g id="Ebene_38" data-name="Ebene 38"><g id="Ebene_39" data-name="Ebene 39"><circle class="cls-1" cx="77.67" cy="78.83" r="76.5"/></g><g id="Ebene_44" data-name="Ebene 44"><path class="cls-2" d="M121.75,120.75l5.25,2,5.75,9s-18.25,16-25,16.75c0,0-20.5,12.75-53.75,2.5l8-12.5Z"/><path class="cls-3" d="M113.2,109.26l14.55.49S120,118,122.5,123s-4.75,5.5-4.75,5.5A65.33,65.33,0,0,0,96,130.75c-11.25,3.25-32.25,7.25-38.25,15s-2.5,3-2.5,3,1.25-7.5,5.5-12.75c0,0-2.75-5-3.75-5s7-4.75,7-4.75l14-4.5S103.4,120,113.2,109.26Z"/><path class="cls-4" d="M111.75,93a63.87,63.87,0,0,0,1.45,16.26,23.48,23.48,0,0,0,2.3,6,112.27,112.27,0,0,1-21.75,7.5C83,125,77.5,125.5,77.5,124a32.49,32.49,0,0,0-.5-4.25Z"/></g><g id="Ebene_42" data-name="Ebene 42"><path class="cls-4" d="M55.75,46.25C54.64,47.29,28,50,40,73c0,0,7.25,20.5,7.5,24.75S53,112,53,112s3.25,4.5,4,7,7.58,11.79,16.75,5.75S103,105,103,105s11-7,3.75-20c0,0,10,0,6.5-8.25s-5.5-10.75-10-7.75-3.5,4-3.5,4-.25-11.25,1.5-11.75,4.5-18.25-7.5-17.75S64.61,38,55.75,46.25Z"/><g id="Ebene_46" data-name="Ebene 46"><path class="cls-5" d="M60,66.25S62.25,55,72.5,56s12-1,12-1,4.81,2,0,3.5-12.25,1.25-12.25,1.25S65.33,67.6,62.75,68,60,66.25,60,66.25Z"/><path class="cls-5" d="M53.42,68.83s-1.64-5.09-6.91-4.14-6.26.11-6.26.11-2.41,1.17.15,1.62a28.17,28.17,0,0,0,6.4,0s3.92,3.3,5.27,3.36S53.42,68.83,53.42,68.83Z"/></g><g id="Ebene_47" data-name="Ebene 47"><path class="cls-6" d="M57,78.25S58.4,99,57,100s-3.5,4.5-.25,5.25,11.5,1,14-3,1.5-10.5-3.25-7.5-3.25,4-3.25,4"/><path class="cls-6" d="M61.5,118s4-2.5,7.5-2,8.75-.75,8.5-3.25"/><path class="cls-5" d="M63.5,109.5s-6.75-2-11.25,1.75-1.25,2-1.25,2l3.5.5-6,2.75s-2.75,2.5,1.5,2.75,9.25-1.5,9.75-4,4.5-2,4.5-2,4.75-.5,6.5-1.75,4.25-1,5-.25,11-1.5,11.5-4.5-4.5.25-4.5.25l-.25-3s-3.75,2.25-5.25,2.25-5-2.75-7.25-.5S66,110.75,63.5,109.5Z"/></g></g><g id="Ebene_41" data-name="Ebene 41"><circle class="cls-7" cx="45.75" cy="81" r="9.75"/><circle class="cls-7" cx="76.29" cy="74.22" r="10.38"/><g id="Ebene_48" data-name="Ebene 48"><ellipse class="cls-8" cx="45.5" cy="81.13" rx="1.5" ry="1.63"/><ellipse class="cls-8" cx="75.38" cy="74.25" rx="1.63" ry="1.5" transform="translate(-12.72 15.65) rotate(-10.94)"/></g></g><g id="Ebene_43" data-name="Ebene 43"><path class="cls-5" d="M85,43.5l10.75,1a10.92,10.92,0,0,1,5,6.56,11.22,11.22,0,0,1-2.2,9.44,33.71,33.71,0,0,0-1.25,6.41c-.28,3-.4,4.47.5,5.59.56.7,1.18.89,4.5,2.25h0s-2.75-2.25-1-4.5,5.25-3,5.25-3,5.75,3.25,6.75,9.5.25,6.75-3.5,7.75-3,.5-3,.5,3.75,7.5,3,9,3.75.25,3.75.25l2.25-9.75c.25-4.26.4-7.9.5-10.75.24-7,.14-8.92-.5-11.25A22,22,0,0,0,112,55a19.12,19.12,0,0,0,4-10.5c.37-7.18-3.75-14.08-5.25-13.75-.44.1-.94.88-1,4.25-.65,1.5-1.17,1.75-1.5,1.75L105,30.5h0S98.07,16.59,81.75,22c0,0-4.75,1.75-7,1.75s-10.7-.49-15,5.5c0,0-14-2.5-18.25,14.25a32.69,32.69,0,0,1-5.75,5.25C32,51.5,22.6,63,34.75,68.75l4.25,2S31,50.84,50.5,48l5.25-1.75s6-4.25,7.75-3.75,15.75-.25,14.5,3.25-2.75,3-2.75,3,9.75.5,10.25-5.25-6.75-12-6.75-12h0"/></g></g></svg>